<svg width="197" height="135" viewBox="0 0 197 135">
  <path d="M55.7773438,133.789062 C44.1522856,133.789062 36.3476762,132.054705 32.3632812,128.585938 C28.3788863,125.164045 26.3867188,118.250052 26.3867188,107.84375 L26.3867188,91.0390625 C26.3867188,84.0077773 25.1445437,79.1093888 22.6601562,76.34375 C20.1288936,73.6249864 15.5820641,72.265625 9.01953125,72.265625 L0.86328125,72.265625 L0.86328125,62.2109375 L9.01953125,62.2109375 C15.6289393,62.2109375 20.1757688,60.8750134 22.6601562,58.203125 C25.1445437,55.4843614 26.3867188,50.6328474 26.3867188,43.6484375 L26.3867188,26.7734375 C26.3867188,16.3671355 28.3788863,9.45314211 32.3632812,6.03125 C36.2539257,2.60935789 44.0585352,0.8984375 55.7773438,0.8984375 L60.2773438,0.8984375 L60.2773438,10.953125 L55.3554688,10.953125 C48.7929359,10.953125 44.5273536,11.9609274 42.5585938,13.9765625 C40.5429587,15.9921976 39.5351562,20.351529 39.5351562,27.0546875 L39.5351562,44.4921875 C39.5351562,51.8984745 38.4804793,57.2421711 36.3710938,60.5234375 C35.3398386,62.1171955 33.9101654,63.4882755 32.0820312,64.6367188 C30.2538971,65.785162 28.0273569,66.6640595 25.4023438,67.2734375 C30.6054948,68.5390688 34.2617082,70.8359209 36.3710938,74.1640625 C38.4804793,77.4922041 39.5351562,82.8124634 39.5351562,90.125 L39.5351562,107.5625 C39.5351562,114.265659 40.5429587,118.62499 42.5585938,120.640625 C44.5273536,122.65626 48.7929359,123.664062 55.3554688,123.664062 L60.2773438,123.664062 L60.2773438,133.789062 L55.7773438,133.789062 Z M69.9257812,123.039062 C65.0976321,123.039062 60.5273653,122.523443 56.2148438,121.492188 C51.667946,120.414057 47.0273674,118.820323 42.2929688,116.710938 L42.2929688,100.117188 C46.5586151,103.914081 50.964821,106.749991 55.5117188,108.625 C60.152367,110.546885 64.8866946,111.507812 69.7148438,111.507812 C72.8554845,111.507812 75.6328004,111.085942 78.046875,110.242188 C80.4609496,109.398433 82.3476495,108.062509 83.7070312,106.234375 C86.3320444,102.765608 87.6445312,96.2734851 87.6445312,86.7578125 L87.6445312,27.9765625 L60.8554688,27.9765625 L60.8554688,16.0234375 L101.847656,16.0234375 L101.847656,86.7578125 C101.847656,93.5078463 101.250006,99.1445086 100.054688,103.667969 C98.859369,108.191429 96.9726691,111.882798 94.3945312,114.742188 C91.8163934,117.601577 88.5234575,119.699212 84.515625,121.035156 C80.5077925,122.3711 75.6445598,123.039062 69.9257812,123.039062 Z M130.496094,123.039062 C123.933561,123.039062 118.015651,121.867199 112.742188,119.523438 C107.468724,117.179676 102.95705,113.593774 99.2070312,108.765625 C95.5038877,103.984351 92.7265718,98.2305024 90.875,91.5039062 C89.0234282,84.7773101 88.0976562,77.1719174 88.0976562,68.6875 C88.0976562,60.2030826 89.0234282,52.5859713 90.875,45.8359375 C92.7265718,39.0859037 95.527325,33.2968991 99.2773438,28.46875 C103.027362,23.6406009 107.527317,20.0429806 112.777344,17.6757812 C118.02737,15.3085819 123.933561,14.125 130.496094,14.125 C132.746105,14.125 134.914052,14.253905 137,14.5117187 C139.085948,14.7695325 140.972648,15.1093729 142.660156,15.53125 C144.347665,15.9531271 146.199209,16.5507774 148.214844,17.3242187 C150.230479,18.0976601 152.082023,18.9531203 153.769531,19.890625 L153.769531,34.4453125 C150.347639,31.5859232 146.621114,29.4062575 142.589844,27.90625 C140.574209,27.1562463 138.570322,26.5937519 136.578125,26.21875 C134.585928,25.8437481 132.535167,25.65625 130.425781,25.65625 C125.878884,25.65625 121.88283,26.5468661 118.4375,28.328125 C114.99217,30.1093839 112.121105,32.7812322 109.824219,36.34375 C105.230446,43.4687856 102.933594,54.2264905 102.933594,68.6171875 C102.933594,82.9610092 105.230446,93.6952769 109.824219,100.820312 C114.417992,107.945348 121.331985,111.507812 130.566406,111.507812 C132.675792,111.507812 134.726553,111.320314 136.71875,110.945312 C138.710947,110.570311 140.714834,110.007816 142.730469,109.257812 C146.621113,107.80468 150.300764,105.625015 153.769531,102.71875 L153.769531,117.273438 C150.113263,119.195322 146.410175,120.648433 142.660156,121.632812 C140.832022,122.101565 138.87501,122.453124 136.789062,122.6875 C134.703115,122.921876 132.605479,123.039062 130.496094,123.039062 Z M136.371094,124.296875 L141.152344,124.296875 C147.714877,124.296875 152.027333,123.265635 154.089844,121.203125 C156.105479,119.18749 157.113281,114.851596 157.113281,108.195312 L157.113281,90.7578125 C157.113281,83.4452759 158.167958,78.1250166 160.277344,74.796875 C162.386729,71.4687334 166.042943,69.1718813 171.246094,67.90625 C166.089818,66.6874939 162.457042,64.4375164 160.347656,61.15625 C159.316401,59.562492 158.519534,57.488294 157.957031,54.9335938 C157.394528,52.3788935 157.113281,49.1093949 157.113281,45.125 L157.113281,27.6875 C157.113281,21.0312167 156.105479,16.6953226 154.089844,14.6796875 C152.027333,12.6171772 147.714877,11.5859375 141.152344,11.5859375 L136.371094,11.5859375 L136.371094,1.53125 L140.730469,1.53125 C152.449277,1.53125 160.253887,3.24217039 164.144531,6.6640625 C168.082051,10.1328298 170.050781,17.0468232 170.050781,27.40625 L170.050781,44.28125 C170.050781,47.9375183 170.542964,50.9257696 171.527344,53.2460938 C172.511724,55.5664179 173.988271,57.4296805 175.957031,58.8359375 C177.832041,60.1953193 180.117174,61.2031217 182.8125,61.859375 C185.507826,62.5156283 188.47264,62.84375 191.707031,62.84375 L196.207031,62.84375 L196.207031,72.8984375 L191.707031,72.8984375 C188.37889,72.8984375 185.37892,73.2382779 182.707031,73.9179688 C180.035143,74.5976596 177.785165,75.6171807 175.957031,76.9765625 C173.988271,78.4296948 172.511724,80.3281133 171.527344,82.671875 C170.542964,85.0156367 170.050781,88.0156067 170.050781,91.671875 L170.050781,108.476562 C170.050781,118.882865 168.082051,125.796858 164.144531,129.21875 C160.160136,132.687517 152.355527,134.421875 140.730469,134.421875 L136.371094,134.421875 L136.371094,124.296875 Z"/>
</svg>
