<?xml version="1.0" standalone="no"?>
<!DOCTYPE svg PUBLIC "-//W3C//DTD SVG 20010904//EN"
 "http://www.w3.org/TR/2001/REC-SVG-20010904/DTD/svg10.dtd">
<svg version="1.0" xmlns="http://www.w3.org/2000/svg"
 width="16.000000pt" height="16.000000pt" viewBox="0 0 16.000000 16.000000"
 preserveAspectRatio="xMidYMid meet">
<metadata>
Created by potrace 1.11, written by Peter Selinger 2001-2013
</metadata>
<g transform="translate(0.000000,16.000000) scale(0.008122,-0.008122)"
fill="#000000" stroke="none">
<path d="M397 1636 c-26 -7 -59 -24 -74 -37 -48 -44 -56 -80 -62 -279 -7 -204
-15 -234 -66 -260 -17 -8 -65 -16 -107 -18 l-78 -4 0 -54 0 -54 78 0 c85 0
115 -11 146 -53 19 -26 21 -46 26 -215 5 -173 7 -191 30 -237 37 -73 89 -97
218 -99 l97 -1 0 50 0 50 -78 6 c-121 8 -121 7 -128 237 -4 137 -10 197 -21
222 -17 40 -71 90 -96 90 -9 0 1 10 22 23 80 45 96 100 96 317 0 75 5 151 10
167 14 39 48 54 133 61 l67 5 0 48 0 49 -82 -1 c-46 0 -105 -6 -131 -13z"/>
<path d="M1360 1596 l0 -56 59 0 c134 0 144 -17 151 -260 6 -210 14 -238 83
-275 39 -21 47 -35 21 -35 -26 0 -81 -63 -93 -105 -6 -22 -11 -105 -11 -185 0
-226 -13 -250 -135 -258 l-75 -5 0 -55 0 -55 91 8 c214 16 249 61 249 314 1
160 9 203 46 242 32 33 107 59 171 59 l43 0 0 49 0 48 -79 11 c-89 11 -131 34
-158 85 -14 25 -19 69 -23 207 -6 191 -16 229 -65 268 -36 29 -81 40 -188 48
l-87 7 0 -57z"/>
<path d="M1197 1510 c-51 -13 -116 -47 -149 -78 l-28 -26 0 47 0 47 -205 0
-205 0 0 -60 0 -60 130 0 131 0 -3 -362 c-3 -395 -4 -400 -61 -442 -21 -15
-47 -22 -100 -24 -84 -4 -156 18 -237 74 l-50 34 0 -84 0 -85 58 -21 c86 -32
157 -43 257 -37 126 6 198 43 244 125 8 15 12 14 30 -9 30 -39 108 -85 175
-104 80 -23 218 -16 299 15 l57 23 0 73 c0 41 -3 74 -6 74 -3 0 -17 -9 -31
-20 -67 -52 -198 -74 -287 -48 -57 17 -119 82 -145 152 -33 90 -47 237 -33
361 19 171 64 258 156 301 87 41 220 25 305 -35 16 -12 32 -21 35 -21 12 0 6
138 -6 148 -48 38 -244 63 -331 42z"/>
</g>
</svg>
